<svg width="1514" height="600" viewBox="0 0 1514 600" fill="none" xmlns="http://www.w3.org/2000/svg">
<path opacity="0.025" d="M329.698 271.909H247.3C244.335 271.909 241.938 269.513 241.938 266.547V184.125C241.938 181.16 244.335 178.763 247.3 178.763H329.722C332.688 178.763 335.084 181.16 335.084 184.125V266.547C335.06 269.513 332.664 271.909 329.698 271.909Z" fill="#0000FF"/>
<path opacity="0.025" d="M1379.98 549.338H1295.26C1292.21 549.338 1289.75 546.874 1289.75 543.825V459.087C1289.75 456.038 1292.21 453.574 1295.26 453.574H1380C1383.05 453.574 1385.51 456.038 1385.51 459.087V543.825C1385.49 546.874 1383.02 549.338 1379.98 549.338Z" fill="#0000FF"/>
<path opacity="0.025" d="M1466.65 113.519H1366.23C1362.62 113.519 1359.7 110.598 1359.7 106.984V6.53468C1359.7 2.92038 1362.62 0 1366.23 0H1466.68C1470.3 0 1473.22 2.92038 1473.22 6.53468V106.984C1473.19 110.598 1470.27 113.519 1466.65 113.519Z" fill="#0000FF"/>
<path opacity="0.025" d="M363.976 296.681H315.045C313.289 296.681 311.869 295.261 311.869 293.505V244.548C311.869 242.792 313.289 241.372 315.045 241.372H363.976C365.732 241.372 367.152 242.792 367.152 244.548V293.48C367.152 295.235 365.732 296.681 363.976 296.681Z" fill="#0000FF"/>
<path opacity="0.025" d="M1416.56 577.681H1370.34C1368.68 577.681 1367.34 576.34 1367.34 574.681V528.434C1367.34 526.775 1368.68 525.434 1370.34 525.434H1416.56C1418.22 525.434 1419.56 526.775 1419.56 528.434V574.657C1419.56 576.315 1418.22 577.681 1416.56 577.681Z" fill="#0000FF"/>
<path opacity="0.025" d="M1510.03 147.117H1455.23C1453.27 147.117 1451.68 145.527 1451.68 143.561V88.7386C1451.68 86.7724 1453.27 85.1821 1455.23 85.1821H1510.03C1511.99 85.1821 1513.58 86.7724 1513.58 88.7386V143.532C1513.58 145.498 1511.99 147.117 1510.03 147.117Z" fill="#0000FF"/>
<path opacity="0.025" d="M883.024 361.046H825.844C822.389 361.046 819.598 358.254 819.598 354.799V297.619C819.598 294.164 822.389 291.372 825.844 291.372H883.024C886.48 291.372 889.271 294.164 889.271 297.619V354.799C889.297 358.254 886.48 361.046 883.024 361.046Z" fill="#0000FF"/>
<path opacity="0.025" d="M74.348 533.459H7.32251C3.27185 533.459 0 530.187 0 526.136V459.111C0 455.06 3.27185 451.788 7.32251 451.788H74.348C78.3988 451.788 81.6707 455.06 81.6707 459.111V526.136C81.7018 530.187 78.3988 533.459 74.348 533.459Z" fill="#0000FF"/>
<path opacity="0.025" d="M1006.45 387.681H863.619C859.047 387.681 855.352 383.986 855.352 379.414V342.703C855.352 338.131 859.047 334.436 863.619 334.436H1006.45C1011.02 334.436 1014.71 338.131 1014.71 342.703V379.414C1014.71 383.96 1010.99 387.681 1006.45 387.681Z" fill="#0000FF"/>
<path opacity="0.025" d="M219.024 564.681H51.601C46.2415 564.681 41.9102 560.35 41.9102 554.991V511.958C41.9102 506.599 46.2415 502.268 51.601 502.268H219.024C224.384 502.268 228.715 506.599 228.715 511.958V554.99C228.715 560.319 224.353 564.681 219.024 564.681Z" fill="#0000FF"/>
<g opacity="0.025">
<path d="M351.901 599.302C337.754 599.302 326.256 587.803 326.256 573.657C326.256 559.51 337.754 548.012 351.901 548.012C366.047 548.012 377.545 559.51 377.545 573.657C377.545 587.803 366.047 599.302 351.901 599.302ZM351.901 560.476C344.64 560.476 338.72 566.396 338.72 573.657C338.72 580.917 344.64 586.837 351.901 586.837C359.161 586.837 365.081 580.917 365.081 573.657C365.081 566.396 359.161 560.476 351.901 560.476Z" fill="#0000FF"/>
</g>
<g opacity="0.025">
<path d="M55.9006 117.302C41.754 117.302 30.2559 105.803 30.2559 91.6567C30.2559 77.5101 41.754 66.012 55.9006 66.012C70.0473 66.012 81.5454 77.5101 81.5454 91.6567C81.5454 105.803 70.0473 117.302 55.9006 117.302ZM55.9006 78.476C48.6403 78.476 42.7199 84.3964 42.7199 91.6567C42.7199 98.917 48.6403 104.837 55.9006 104.837C63.1609 104.837 69.0813 98.917 69.0813 91.6567C69.0813 84.3964 63.1609 78.476 55.9006 78.476Z" fill="#0000FF"/>
</g>
<g opacity="0.025">
<path d="M1127.9 583.302C1113.75 583.302 1102.26 571.803 1102.26 557.657C1102.26 543.51 1113.75 532.012 1127.9 532.012C1142.05 532.012 1153.55 543.51 1153.55 557.657C1153.55 571.803 1142.05 583.302 1127.9 583.302ZM1127.9 544.476C1120.64 544.476 1114.72 550.396 1114.72 557.657C1114.72 564.917 1120.64 570.837 1127.9 570.837C1135.16 570.837 1141.08 564.917 1141.08 557.657C1141.08 550.396 1135.16 544.476 1127.9 544.476Z" fill="#0000FF"/>
</g>
<circle opacity="0.025" cx="480.038" cy="362.296" r="12" stroke="#0000FF" stroke-width="10"/>
<circle opacity="0.025" cx="352.038" cy="32.2961" r="12" stroke="#0000FF" stroke-width="10"/>
<circle opacity="0.025" cx="1195.04" cy="147.296" r="12" stroke="#0000FF" stroke-width="10"/>
<circle opacity="0.025" cx="99.0381" cy="308.296" r="12" stroke="#0000FF" stroke-width="10"/>
<circle opacity="0.025" cx="1437.04" cy="328.296" r="12" stroke="#0000FF" stroke-width="10"/>
</svg>
